<svg xmlns="http://www.w3.org/2000/svg" width="96" height="96" viewBox="0 0 96 96"><defs><style>.a{fill:rgba(69,121,245,0.03);}.b{fill:none;}.c{fill:#377dff;}</style></defs><g transform="translate(0 -0.262)"><rect class="a" width="96" height="96" rx="48" transform="translate(0 0.262)"/><g transform="translate(0 0.262)"><rect class="b" width="96" height="94"/><g transform="translate(29.357 23.427)"><path class="c" d="M36.8,30.621a5.367,5.367,0,0,1,5.367,5.367v2.159a8.944,8.944,0,0,1-3.118,6.786c-3.734,3.205-9.077,4.772-15.97,4.772S10.844,48.139,7.117,44.934A8.944,8.944,0,0,1,4,38.151V35.987A5.367,5.367,0,0,1,9.37,30.621Zm0,3.578H9.37a1.789,1.789,0,0,0-1.789,1.789v2.164a5.367,5.367,0,0,0,1.868,4.07c3,2.58,7.523,3.906,13.627,3.906s10.632-1.327,13.64-3.909a5.367,5.367,0,0,0,1.871-4.072V35.987A1.789,1.789,0,0,0,36.8,34.2ZM22.834,2.017,23.077,2A1.789,1.789,0,0,1,24.85,3.547l.016.243,0,1.786h8.349a5.367,5.367,0,0,1,5.367,5.367V21.688a5.367,5.367,0,0,1-5.367,5.367H12.939a5.367,5.367,0,0,1-5.367-5.367V10.944a5.367,5.367,0,0,1,5.367-5.367h8.347l0-1.786a1.789,1.789,0,0,1,1.546-1.773L23.077,2ZM33.213,9.155H12.939a1.789,1.789,0,0,0-1.789,1.789V21.688a1.789,1.789,0,0,0,1.789,1.789H33.213A1.789,1.789,0,0,0,35,21.688V10.944A1.789,1.789,0,0,0,33.213,9.155ZM17.708,12.732a2.98,2.98,0,1,1-2.98,2.98A2.98,2.98,0,0,1,17.708,12.732Zm10.716,0a2.98,2.98,0,1,1-2.98,2.98A2.98,2.98,0,0,1,28.424,12.732Z" transform="translate(-4.004 -2)"/></g></g></g></svg>