<svg xmlns="http://www.w3.org/2000/svg" width="96" height="96" viewBox="0 0 96 96"><defs><style>.a{fill:#f9fbff;}.b{fill:none;}.c{fill:#377dff;}</style></defs><g transform="translate(-0.398 -0.262)"><rect class="a" width="96" height="96" rx="48" transform="translate(0.398 0.262)"/><g transform="translate(0.398 0.262)"><rect class="b" width="96" height="94"/><g transform="translate(23.256 27.402)"><path class="c" d="M10.075,4H43.617a8.076,8.076,0,0,1,8.062,7.617l.013.458v23.6a8.076,8.076,0,0,1-7.617,8.062l-.458.013H10.075a8.075,8.075,0,0,1-8.062-7.617L2,35.679v-23.6A8.075,8.075,0,0,1,9.617,4.013L10.075,4h0Zm37.89,13.35L27.714,28.01a1.864,1.864,0,0,1-1.5.105l-.239-.105L5.727,17.352V35.679a4.348,4.348,0,0,0,3.991,4.334l.357.014H43.617a4.348,4.348,0,0,0,4.334-3.992l.014-.357ZM43.617,7.727H10.075a4.348,4.348,0,0,0-4.334,3.991l-.014.357v1.066L26.846,24.256,47.965,13.138V12.075a4.348,4.348,0,0,0-3.992-4.334Z" transform="translate(-2 -4)"/></g></g></g></svg>