<svg xmlns="http://www.w3.org/2000/svg" width="96" height="96" viewBox="0 0 96 96"><defs><style>.a{fill:rgba(69,121,245,0.03);}.b{fill:none;}.c{fill:#377dff;}</style></defs><g transform="translate(-0.398)"><rect class="a" width="96" height="96" rx="48" transform="translate(0.398)"/><g transform="translate(0.398 0)"><rect class="b" width="94.989" height="94"/><g transform="translate(27.916 23.127)"><g transform="translate(0 0)"><path class="c" d="M22.881,2a9.44,9.44,0,0,1,9.44,9.44v4.72h4.13a5.31,5.31,0,0,1,5.31,5.31V43.892a5.31,5.31,0,0,1-5.31,5.31H9.31A5.31,5.31,0,0,1,4,43.892V21.471a5.31,5.31,0,0,1,5.31-5.31h4.13V11.44A9.44,9.44,0,0,1,22.881,2ZM36.451,19.7H9.31a1.77,1.77,0,0,0-1.77,1.77V43.892a1.77,1.77,0,0,0,1.77,1.77H36.451a1.77,1.77,0,0,0,1.77-1.77V21.471A1.77,1.77,0,0,0,36.451,19.7Zm-13.57,9.44a3.54,3.54,0,1,1-3.54,3.54A3.54,3.54,0,0,1,22.881,29.141Zm0-23.6a5.9,5.9,0,0,0-5.9,5.9v4.72h11.8V11.44A5.9,5.9,0,0,0,22.881,5.54Z" transform="translate(-4 -2)"/></g></g></g></g></svg>